<mxfile host="app.diagrams.net" modified="2023-09-12T06:02:47.145Z" agent="Mozilla/5.0 (Windows NT 10.0; Win64; x64) AppleWebKit/537.36 (KHTML, like Gecko) Chrome/116.0.0.0 Safari/537.36" etag="Fs3yWT4KCcP51_QNk9H4" version="21.7.4" type="github">
  <diagram name="페이지-1" id="YfyCG1IlVpEm7WSCvwEc">
    <mxGraphModel dx="1434" dy="782" grid="1" gridSize="10" guides="1" tooltips="1" connect="1" arrows="1" fold="1" page="1" pageScale="1" pageWidth="827" pageHeight="1169" math="0" shadow="0">
      <root>
        <mxCell id="0" />
        <mxCell id="1" parent="0" />
        <mxCell id="j2JVX4LjBDM1bf64mXrF-1" value="" style="whiteSpace=wrap;html=1;aspect=fixed;" vertex="1" parent="1">
          <mxGeometry x="360" y="260" width="80" height="80" as="geometry" />
        </mxCell>
        <mxCell id="j2JVX4LjBDM1bf64mXrF-2" value="" style="endArrow=none;dashed=1;html=1;dashPattern=1 3;strokeWidth=2;rounded=0;entryX=0.5;entryY=1;entryDx=0;entryDy=0;" edge="1" parent="1" target="j2JVX4LjBDM1bf64mXrF-1">
          <mxGeometry width="50" height="50" relative="1" as="geometry">
            <mxPoint x="400" y="430" as="sourcePoint" />
            <mxPoint x="440" y="380" as="targetPoint" />
          </mxGeometry>
        </mxCell>
        <mxCell id="j2JVX4LjBDM1bf64mXrF-3" value="" style="ellipse;whiteSpace=wrap;html=1;aspect=fixed;" vertex="1" parent="1">
          <mxGeometry x="350" y="420" width="80" height="80" as="geometry" />
        </mxCell>
      </root>
    </mxGraphModel>
  </diagram>
</mxfile>
